<svg width="30" height="30" viewBox="0 0 30 30" fill="none" xmlns="http://www.w3.org/2000/svg">
<path id="Vector" d="M15 0C11.0218 0 7.2062 1.58024 4.39342 4.39342C1.58024 7.20637 0 11.0216 0 15C0 18.9784 1.58024 22.7938 4.39342 25.6066C7.20637 28.4198 11.0216 30 15 30C18.9784 30 22.7938 28.4198 25.6066 25.6066C28.4198 22.7936 30 18.9784 30 15C30 11.0216 28.4198 7.2062 25.6066 4.39342C22.7936 1.58024 18.9784 0 15 0ZM15.139 26.0746C12.2309 25.977 9.47452 24.7532 7.45178 22.6614C5.4292 20.5697 4.2985 17.7739 4.2985 14.8643C4.2985 11.9544 5.4292 9.15863 7.45178 7.06709C9.47458 4.97532 12.2309 3.75147 15.139 3.65391V26.0746Z" fill="#1E1E1E"/>
</svg>
